<?xml version="1.0" standalone="no"?><!DOCTYPE svg PUBLIC "-//W3C//DTD SVG 1.1//EN" "http://www.w3.org/Graphics/SVG/1.1/DTD/svg11.dtd"><svg t="1782291892061" class="icon" viewBox="0 0 1024 1024" version="1.1" xmlns="http://www.w3.org/2000/svg" p-id="6900" xmlns:xlink="http://www.w3.org/1999/xlink" width="200" height="200"><path d="M773.446809 0H250.553191a196.085106 196.085106 0 0 0-196.085106 196.085106v631.829788a196.085106 196.085106 0 0 0 196.085106 196.085106h505.376681a43.574468 43.574468 0 0 0 30.807149-12.767319l170.027575-170.027575A43.574468 43.574468 0 0 0 969.531915 810.397957V196.085106a196.085106 196.085106 0 0 0-196.085106-196.085106zM250.553191 43.574468h522.893618a152.510638 152.510638 0 0 1 152.510638 152.510638v614.312851L755.929872 980.425532H250.553191a152.510638 152.510638 0 0 1-152.510638-152.510638V196.085106a152.510638 152.510638 0 0 1 152.510638-152.510638z" fill="#979797" p-id="6901"></path><path d="M542.197106 228.765957a21.787234 21.787234 0 0 1 2.52732 43.421958l-2.52732 0.152511H185.191489a21.787234 21.787234 0 0 1-2.549106-43.421958L185.191489 228.765957h357.005617zM818.546383 403.06383a21.787234 21.787234 0 0 1 2.549106 43.421957l-2.549106 0.152511H185.191489a21.787234 21.787234 0 0 1-2.549106-43.421958L185.191489 403.06383h633.354894zM818.546383 577.361702a21.787234 21.787234 0 0 1 2.549106 43.421958l-2.549106 0.15251H185.191489a21.787234 21.787234 0 0 1-2.549106-43.421957L185.191489 577.361702h633.354894zM947.744681 784.340426v43.574468h-177.936341v174.297872h-43.574468v-174.297872a43.574468 43.574468 0 0 1 40.306383-43.465532l3.268085-0.108936H947.744681z" fill="#979797" p-id="6902"></path></svg>