<svg width="13" height="13" viewBox="0 0 13 13" fill="none" xmlns="http://www.w3.org/2000/svg">
<g id="Icon" clip-path="url(#clip0_103_1068)">
<path id="Vector" d="M6.29443 3.67163V11.015" stroke="#99A1AF" stroke-width="1.04906" stroke-linecap="round" stroke-linejoin="round"/>
<path id="Vector_2" d="M1.5736 9.44142C1.43449 9.44142 1.30107 9.38616 1.2027 9.28779C1.10433 9.18942 1.04907 9.056 1.04907 8.91689V2.09802C1.04907 1.9589 1.10433 1.82549 1.2027 1.72712C1.30107 1.62875 1.43449 1.57349 1.5736 1.57349H4.19625C4.7527 1.57349 5.28636 1.79454 5.67984 2.18801C6.07331 2.58148 6.29436 3.11515 6.29436 3.6716C6.29436 3.11515 6.51541 2.58148 6.90888 2.18801C7.30236 1.79454 7.83602 1.57349 8.39248 1.57349H11.0151C11.1542 1.57349 11.2876 1.62875 11.386 1.72712C11.4844 1.82549 11.5396 1.9589 11.5396 2.09802V8.91689C11.5396 9.056 11.4844 9.18942 11.386 9.28779C11.2876 9.38616 11.1542 9.44142 11.0151 9.44142H7.86795C7.45061 9.44142 7.05036 9.60721 6.75525 9.90231C6.46015 10.1974 6.29436 10.5977 6.29436 11.015C6.29436 10.5977 6.12857 10.1974 5.83347 9.90231C5.53836 9.60721 5.13811 9.44142 4.72077 9.44142H1.5736Z" stroke="#99A1AF" stroke-width="1.04906" stroke-linecap="round" stroke-linejoin="round"/>
</g>
<defs>
<clipPath id="clip0_103_1068">
<rect width="12.5887" height="12.5887" fill="white"/>
</clipPath>
</defs>
</svg>
