<svg width="36" height="36" viewBox="0 0 36 36" fill="none" xmlns="http://www.w3.org/2000/svg">
<g id="Container">
<path d="M0.00170898 10C0.00170898 4.47715 4.47886 0 10.0017 0H26.0017C31.5246 0 36.0017 4.47715 36.0017 10V26C36.0017 31.5228 31.5246 36 26.0017 36H10.0017C4.47886 36 0.00170898 31.5228 0.00170898 26V10Z" fill="#EDEDFC"/>
<g id="Icon" clip-path="url(#clip0_120_2)">
<path id="Vector" d="M18.0017 14.2507V24.7488" stroke="#6366F1" stroke-width="1.49972" stroke-linecap="round" stroke-linejoin="round"/>
<path id="Vector_2" d="M11.253 22.4992C11.0542 22.4992 10.8634 22.4202 10.7228 22.2795C10.5822 22.1389 10.5032 21.9482 10.5032 21.7493V12.0011C10.5032 11.8022 10.5822 11.6115 10.7228 11.4709C10.8634 11.3302 11.0542 11.2512 11.253 11.2512H15.0023C15.7979 11.2512 16.5608 11.5672 17.1233 12.1297C17.6858 12.6922 18.0018 13.4552 18.0018 14.2507C18.0018 13.4552 18.3178 12.6922 18.8803 12.1297C19.4428 11.5672 20.2057 11.2512 21.0012 11.2512H24.7506C24.9494 11.2512 25.1402 11.3302 25.2808 11.4709C25.4214 11.6115 25.5004 11.8022 25.5004 12.0011V21.7493C25.5004 21.9482 25.4214 22.1389 25.2808 22.2795C25.1402 22.4202 24.9494 22.4992 24.7506 22.4992H20.2514C19.6548 22.4992 19.0826 22.7362 18.6607 23.158C18.2388 23.5799 18.0018 24.1521 18.0018 24.7487C18.0018 24.1521 17.7648 23.5799 17.3429 23.158C16.921 22.7362 16.3488 22.4992 15.7522 22.4992H11.253Z" stroke="#6366F1" stroke-width="1.49972" stroke-linecap="round" stroke-linejoin="round"/>
</g>
</g>
<defs>
<clipPath id="clip0_120_2">
<rect width="17.9967" height="17.9967" fill="white" transform="translate(9.00342 9.00171)"/>
</clipPath>
</defs>
</svg>
