<svg width="515" height="250" viewBox="0 0 515 250" fill="none" xmlns="http://www.w3.org/2000/svg">
<path d="M48.6435 195.411H47.9968V236.797H36.5724V186.501H57.1939L64.0198 222.499L64.1635 223.217L64.3072 222.499L71.1331 186.501H91.7546V236.797H80.3302V195.411H79.7554L71.1331 236.797H57.1939L48.6435 195.411ZM116.162 237.731C112.522 237.731 109.336 236.869 106.606 235.145C103.924 233.42 101.84 231.049 100.355 228.031C98.9179 225.014 98.1994 221.493 98.1994 217.469C98.1994 213.493 98.9179 209.973 100.355 206.907C101.84 203.793 103.9 201.374 106.534 199.65C109.217 197.925 112.33 197.063 115.875 197.063C117.504 197.063 119.132 197.375 120.761 197.997C122.437 198.572 123.994 199.386 125.431 200.44V197.997H136.928V227.744C136.928 231.624 137.407 234.642 138.365 236.797H127.587C127.251 236.127 126.964 235.264 126.725 234.211C123.755 236.558 120.234 237.731 116.162 237.731ZM109.193 217.469C109.193 219.673 109.624 221.684 110.486 223.505C111.396 225.325 112.57 226.786 114.007 227.888C115.492 228.941 117.049 229.468 118.677 229.468C119.827 229.468 121.12 229.229 122.557 228.75C123.994 228.223 125.24 227.121 126.293 225.445V209.35C125.24 207.673 123.994 206.596 122.557 206.117C121.168 205.638 119.875 205.398 118.677 205.398C117.049 205.398 115.492 205.925 114.007 206.979C112.57 208.033 111.396 209.494 110.486 211.362C109.624 213.182 109.193 215.218 109.193 217.469ZM155.619 197.997V202.165C156.865 200.823 158.35 199.794 160.074 199.075C161.846 198.309 163.595 197.925 165.319 197.925C166.517 197.925 167.642 198.093 168.696 198.428V207.266C167.355 206.931 166.086 206.763 164.888 206.763C163.068 206.763 161.343 207.075 159.715 207.697C158.086 208.272 156.721 209.206 155.619 210.499V236.797H144.123V197.997H155.619ZM173.453 236.797V181.543H184.949V210.643H186.674L195.583 197.997H207.583L195.152 214.954C197.787 217.445 200.158 220.463 202.266 224.008C204.373 227.552 206.481 231.816 208.589 236.797H197.739C195.631 232.199 193.859 228.702 192.422 226.307C191.033 223.864 189.212 221.637 186.961 219.625H184.949V236.797H173.453ZM246.763 234.714C244.943 235.815 242.811 236.63 240.368 237.157C237.973 237.683 235.65 237.947 233.399 237.947C225.735 237.947 219.915 236.127 215.939 232.486C212.011 228.846 210.047 223.744 210.047 217.182C210.047 210.667 211.795 205.685 215.292 202.237C218.837 198.74 223.651 196.991 229.734 196.991C235.77 196.991 240.536 198.74 244.033 202.237C247.578 205.685 249.35 210.667 249.35 217.182C249.35 217.9 249.302 218.93 249.206 220.271H221.256C222.31 226.451 226.357 229.54 233.399 229.54C238.333 229.54 242.787 228.079 246.763 225.157V234.714ZM238.5 212.224C237.878 209.829 236.8 208.057 235.267 206.907C233.734 205.757 231.89 205.182 229.734 205.182C227.722 205.182 225.998 205.781 224.561 206.979C223.172 208.176 222.19 209.925 221.615 212.224H238.5ZM258.146 197.997V186.932H268.924V197.997H276.396V206.763H268.924V223.433C268.924 224.822 269.02 225.876 269.211 226.594C269.451 227.313 269.858 227.816 270.433 228.103C271.008 228.343 271.846 228.462 272.948 228.462C273.666 228.462 274.265 228.439 274.744 228.391C275.271 228.343 275.726 228.271 276.109 228.175V237.013C274.097 237.252 272.229 237.372 270.505 237.372C267.199 237.372 264.733 237.037 263.104 236.366C261.475 235.696 260.23 234.546 259.368 232.917C258.553 231.241 258.146 228.87 258.146 225.804V206.763H252.542V197.997H258.146ZM318.931 237.659C318.404 237.707 317.59 237.731 316.488 237.731C310.021 237.731 304.273 236.342 299.244 233.564V223.002C301.878 224.63 304.776 225.996 307.938 227.097C311.099 228.199 313.973 228.75 316.56 228.75C318.668 228.75 320.32 228.223 321.518 227.169C322.763 226.115 323.386 224.918 323.386 223.577C323.386 221.708 322.667 220.008 321.23 218.475C319.793 216.894 317.494 215.625 314.333 214.667C310.692 213.517 307.842 212.368 305.782 211.218C303.77 210.02 302.238 208.536 301.184 206.763C300.178 204.991 299.675 202.739 299.675 200.009C299.675 197.422 300.298 195.075 301.543 192.968C302.788 190.812 304.609 189.088 307.004 187.794C309.447 186.501 312.345 185.782 315.698 185.639C316.129 185.591 316.799 185.567 317.71 185.567C320.2 185.567 322.691 185.83 325.182 186.357C327.721 186.836 329.853 187.459 331.577 188.225V197.494C329.709 196.68 327.529 196.009 325.038 195.482C322.548 194.956 320.344 194.692 318.428 194.692C315.985 194.692 314.117 195.123 312.824 195.985C311.53 196.848 310.884 198.045 310.884 199.578C310.884 200.967 311.578 202.213 312.967 203.314C314.357 204.416 316.512 205.47 319.434 206.476C322.931 207.482 325.781 208.631 327.984 209.925C330.188 211.17 331.912 212.823 333.158 214.882C334.403 216.894 335.026 219.433 335.026 222.499C335.026 225.421 334.355 228.007 333.014 230.259C331.673 232.51 329.781 234.282 327.338 235.576C324.943 236.821 322.14 237.516 318.931 237.659ZM357.47 237.731C353.829 237.731 350.644 236.869 347.913 235.145C345.231 233.42 343.147 231.049 341.662 228.031C340.225 225.014 339.507 221.493 339.507 217.469C339.507 213.493 340.225 209.973 341.662 206.907C343.147 203.793 345.207 201.374 347.841 199.65C350.524 197.925 353.637 197.063 357.182 197.063C358.811 197.063 360.439 197.375 362.068 197.997C363.745 198.572 365.301 199.386 366.738 200.44V197.997H378.235V227.744C378.235 231.624 378.714 234.642 379.672 236.797H368.894C368.559 236.127 368.271 235.264 368.032 234.211C365.062 236.558 361.541 237.731 357.47 237.731ZM350.5 217.469C350.5 219.673 350.931 221.684 351.793 223.505C352.703 225.325 353.877 226.786 355.314 227.888C356.799 228.941 358.356 229.468 359.984 229.468C361.134 229.468 362.427 229.229 363.864 228.75C365.301 228.223 366.547 227.121 367.601 225.445V209.35C366.547 207.673 365.301 206.596 363.864 206.117C362.475 205.638 361.182 205.398 359.984 205.398C358.356 205.398 356.799 205.925 355.314 206.979C353.877 208.033 352.703 209.494 351.793 211.362C350.931 213.182 350.5 215.218 350.5 217.469ZM398.507 237.372C394.196 237.372 390.939 236.175 388.735 233.779C386.532 231.337 385.43 227.768 385.43 223.074V181.543H396.926V220.199C396.926 222.116 397.07 223.577 397.357 224.582C397.645 225.588 398.124 226.355 398.794 226.882C399.321 227.313 399.896 227.6 400.519 227.744C401.19 227.84 402.339 227.888 403.968 227.888V237.372H398.507ZM443.584 234.714C441.764 235.815 439.632 236.63 437.189 237.157C434.794 237.683 432.471 237.947 430.22 237.947C422.555 237.947 416.735 236.127 412.76 232.486C408.832 228.846 406.868 223.744 406.868 217.182C406.868 210.667 408.616 205.685 412.113 202.237C415.658 198.74 420.472 196.991 426.555 196.991C432.591 196.991 437.357 198.74 440.854 202.237C444.398 205.685 446.171 210.667 446.171 217.182C446.171 217.9 446.123 218.93 446.027 220.271H418.077C419.13 226.451 423.178 229.54 430.22 229.54C435.153 229.54 439.608 228.079 443.584 225.157V234.714ZM435.321 212.224C434.698 209.829 433.62 208.057 432.088 206.907C430.555 205.757 428.711 205.182 426.555 205.182C424.543 205.182 422.819 205.781 421.382 206.979C419.993 208.176 419.011 209.925 418.436 212.224H435.321ZM467.541 237.659C464.619 237.803 461.649 237.564 458.631 236.941C455.661 236.366 453.075 235.456 450.871 234.211V223.864C452.835 225.301 455.182 226.499 457.913 227.457C460.691 228.367 463.134 228.75 465.242 228.606C466.727 228.51 467.804 228.199 468.475 227.672C469.146 227.097 469.529 226.522 469.625 225.948C469.864 224.463 469.505 223.337 468.547 222.571C467.589 221.804 465.793 221.062 463.158 220.343C460.236 219.529 457.913 218.595 456.188 217.541C454.464 216.439 453.147 215.218 452.236 213.877C451.374 212.487 450.943 210.739 450.943 208.631C450.943 206.428 451.518 204.464 452.668 202.739C453.817 200.967 455.637 199.578 458.128 198.572C460.619 197.566 463.302 197.063 466.176 197.063C468.331 197.063 470.511 197.279 472.714 197.71C474.918 198.093 476.762 198.62 478.247 199.291V208.559C476.714 207.793 474.894 207.122 472.786 206.548C470.726 205.925 468.93 205.614 467.397 205.614C464.14 205.614 462.368 206.476 462.08 208.2C461.936 209.206 462.392 210.092 463.445 210.859C464.547 211.625 466.104 212.32 468.116 212.942C470.99 213.853 473.337 214.787 475.157 215.745C477.025 216.703 478.486 217.948 479.54 219.481C480.594 221.014 481.121 222.978 481.121 225.373C481.121 228.918 479.852 231.816 477.313 234.067C474.774 236.27 471.517 237.468 467.541 237.659Z" fill="black"/>
<path d="M336.35 34.2482C329.938 23.1366 323.526 12.0249 317.114 0.913248C316.923 0.608819 316.752 0.304428 316.581 0H277.576V0.913248C277.386 0.608819 277.215 0.304428 277.043 0H237.487C237.315 0.304428 237.144 0.627865 236.954 0.932293V0H197.949C197.778 0.304428 197.588 0.608819 197.416 0.913248V34.2482H217.718C217.889 33.9438 218.079 33.6394 218.251 33.3349V34.2482H296.279V33.3159C296.451 33.6203 296.622 33.9438 296.812 34.2482C296.641 34.5526 296.47 34.857 296.279 35.1614V101.831C296.47 102.136 296.641 102.44 296.812 102.745C296.622 103.049 296.451 103.372 296.279 103.677V102.745H236.954V68.4964H197.949C197.778 68.8008 197.588 69.1242 197.416 69.4287V136.079C197.588 136.384 197.778 136.688 197.949 136.993H316.581C323.183 125.577 329.767 114.161 336.35 102.745H336.369C336.54 102.44 336.711 102.136 336.883 101.831V35.1614C336.711 34.857 336.521 34.5526 336.369 34.2482H336.35ZM217.718 102.745C217.908 102.44 218.079 102.136 218.251 101.831V103.658C218.079 103.353 217.889 103.049 217.718 102.745Z" fill="black"/>
<path d="M158.392 0H118.855C112.31 11.3019 105.783 22.6229 99.2573 33.9248V34.5716C99.2002 34.4574 99.1431 34.3623 99.086 34.2482H99.0669C95.7563 39.9943 92.4457 45.7403 89.116 51.4864C94.1581 60.3149 103.729 77.1345 108.771 85.9629C111.948 80.4452 115.145 74.9274 118.322 69.4096V67.5831C118.493 67.8876 118.684 68.1919 118.855 68.4964C118.684 68.8008 118.493 69.1052 118.322 69.4096V136.079C118.493 136.384 118.665 136.688 118.855 136.993H158.412C158.583 136.688 158.754 136.384 158.925 136.079V69.4096C158.754 69.1052 158.583 68.8008 158.392 68.4964C158.583 68.1919 158.754 67.8876 158.925 67.5831V0.913248C158.754 0.608819 158.583 0.304428 158.412 0H158.392ZM138.262 103.372V102.136C138.395 102.345 138.509 102.535 138.624 102.745C138.509 102.954 138.376 103.163 138.262 103.372ZM138.452 34.5526V33.9438C138.452 33.9438 138.567 34.153 138.624 34.2482C138.567 34.3433 138.509 34.4574 138.452 34.5526Z" fill="black"/>
<path d="M514.155 0H475.302V0.894202C475.131 0.589774 474.941 0.304428 474.77 0H435.232C435.042 0.304428 434.87 0.608819 434.699 0.913248V0H356.138C362.721 11.4161 369.304 22.8321 375.906 34.2482H415.444C415.634 34.5526 415.806 34.857 415.977 35.1614V101.831C415.806 102.136 415.634 102.44 415.444 102.745C422.046 114.161 428.63 125.577 435.232 136.993H454.468V33.3159C454.639 33.6203 454.83 33.9438 455.001 34.2482H494.557C501.083 22.9273 507.61 11.6253 514.155 0.304377C514.193 0.209243 514.25 0.114179 514.307 0.0190454C514.307 0.0190454 514.212 0 514.155 0ZM434.699 69.4096V67.5831C434.87 67.8876 435.042 68.1919 435.232 68.4964C435.042 68.8008 434.87 69.1052 434.699 69.4096Z" fill="black"/>
<path d="M79.2983 68.4964C72.715 57.0803 46.3629 11.4351 39.7606 0.0190454C39.1898 1.00844 0.20398 0 0.20398 0C-0.44293 38.5863 0.698695 97.8737 0.223026 136.993H39.7606C39.9318 136.669 40.1031 136.384 40.2934 136.079C40.008 118.423 39.4371 85.0877 39.1327 67.4309C52.5465 90.6055 65.9034 113.799 79.2983 136.993C85.9006 125.577 92.4837 114.161 99.067 102.745C92.4837 91.3285 79.2983 68.4964 79.2983 68.4964Z" fill="black"/>
</svg>
