<svg width="515" height="137" viewBox="0 0 515 137" fill="none" xmlns="http://www.w3.org/2000/svg">
<path d="M336.35 34.2482C329.938 23.1366 323.526 12.0249 317.114 0.913248C316.923 0.608819 316.752 0.304428 316.581 0H277.576V0.913248C277.386 0.608819 277.215 0.304428 277.043 0H237.487C237.315 0.304428 237.144 0.627865 236.954 0.932293V0H197.949C197.778 0.304428 197.588 0.608819 197.416 0.913248V34.2482H217.718C217.889 33.9438 218.079 33.6394 218.251 33.3349V34.2482H296.279V33.3159C296.451 33.6203 296.622 33.9438 296.812 34.2482C296.641 34.5526 296.47 34.857 296.279 35.1614V101.831C296.47 102.136 296.641 102.44 296.812 102.745C296.622 103.049 296.451 103.372 296.279 103.677V102.745H236.954V68.4964H197.949C197.778 68.8008 197.588 69.1242 197.416 69.4287V136.079C197.588 136.384 197.778 136.688 197.949 136.993H316.581C323.183 125.577 329.767 114.161 336.35 102.745H336.369C336.54 102.44 336.711 102.136 336.882 101.831V35.1614C336.711 34.857 336.521 34.5526 336.369 34.2482H336.35ZM217.718 102.745C217.908 102.44 218.079 102.136 218.251 101.831V103.658C218.079 103.353 217.889 103.049 217.718 102.745Z" fill="black"/>
<path d="M158.392 0H118.855C112.31 11.3019 105.783 22.6229 99.2573 33.9248V34.5716C99.2002 34.4574 99.1431 34.3623 99.086 34.2482H99.0669C95.7563 39.9943 92.4457 45.7403 89.116 51.4864C94.1581 60.3149 103.729 77.1345 108.771 85.9629C111.948 80.4452 115.145 74.9274 118.322 69.4096V67.5831C118.493 67.8876 118.684 68.1919 118.855 68.4964C118.684 68.8008 118.493 69.1052 118.322 69.4096V136.079C118.493 136.384 118.665 136.688 118.855 136.993H158.412C158.583 136.688 158.754 136.384 158.925 136.079V69.4096C158.754 69.1052 158.583 68.8008 158.392 68.4964C158.583 68.1919 158.754 67.8876 158.925 67.5831V0.913248C158.754 0.608819 158.583 0.304428 158.412 0H158.392ZM138.262 103.372V102.136C138.395 102.345 138.509 102.535 138.624 102.745C138.509 102.954 138.376 103.163 138.262 103.372ZM138.452 34.5526V33.9438C138.452 33.9438 138.567 34.1531 138.624 34.2482C138.567 34.3433 138.509 34.4574 138.452 34.5526Z" fill="black"/>
<path d="M514.155 0H475.302V0.894202C475.131 0.589774 474.941 0.304428 474.77 0H435.232C435.042 0.304428 434.87 0.608819 434.699 0.913248V0H356.138C362.721 11.4161 369.304 22.8321 375.906 34.2482H415.444C415.634 34.5526 415.806 34.857 415.977 35.1614V101.831C415.806 102.136 415.634 102.44 415.444 102.745C422.046 114.161 428.63 125.577 435.232 136.993H454.468V33.3159C454.639 33.6203 454.83 33.9438 455.001 34.2482H494.557C501.084 22.9273 507.61 11.6253 514.155 0.304377C514.193 0.209243 514.25 0.114179 514.307 0.0190454C514.307 0.0190454 514.212 0 514.155 0ZM434.699 69.4096V67.5831C434.87 67.8876 435.042 68.1919 435.232 68.4964C435.042 68.8008 434.87 69.1052 434.699 69.4096Z" fill="black"/>
<path d="M79.2983 68.4964C72.715 57.0803 46.3629 11.4351 39.7606 0.0190454C39.1898 1.00844 0.20398 0 0.20398 0C-0.44293 38.5863 0.698695 97.8737 0.223026 136.993H39.7606C39.9318 136.669 40.1031 136.384 40.2934 136.079C40.008 118.423 39.4371 85.0877 39.1327 67.4309C52.5465 90.6055 65.9034 113.799 79.2983 136.993C85.9006 125.577 92.4837 114.161 99.067 102.745C92.4837 91.3285 79.2983 68.4964 79.2983 68.4964Z" fill="black"/>
</svg>
